<svg xmlns="http://www.w3.org/2000/svg" width="560" height="560" viewBox="0 0 560 560" fill="none">
  <g opacity="0.5" stroke-linecap="round" stroke-linejoin="round">
    <path d="M48 86c10-12 20 12 30 0s20 12 30 0" stroke="#014c63" stroke-width="3"/>
    <path d="M470 96l7 16 17 2-12 12 3 17-15-9-15 9 3-17-12-12 17-2z" stroke="#f4ce42" stroke-width="3"/>
    <circle cx="120" cy="430" r="6" fill="#fc0e4c"/>
    <path d="M430 452c-6-9-20-4-20 6 0 9 14 16 20 22 6-6 20-13 20-22 0-10-14-15-20-6z" stroke="#fc0e4c" stroke-width="3"/>
    <path d="M300 286c8-10 16 8 24 0" stroke="#fc0e4c" stroke-width="3"/>
    <circle cx="500" cy="330" r="5" fill="#014c63"/>
    <path d="M70 250l6 12 6-12" stroke="#f4ce42" stroke-width="3"/>
    <circle cx="250" cy="120" r="5" fill="#f4ce42"/>
    <path d="M220 500c10-12 20 12 30 0" stroke="#014c63" stroke-width="3"/>
  </g>
</svg>
